<?xml version="1.0" encoding="UTF-8" standalone="no"?>
<!-- Created with Inkscape (http://www.inkscape.org/) -->

<svg
   xmlns:dc="http://purl.org/dc/elements/1.1/"
   xmlns:cc="http://creativecommons.org/ns#"
   xmlns:rdf="http://www.w3.org/1999/02/22-rdf-syntax-ns#"
   xmlns:svg="http://www.w3.org/2000/svg"
   xmlns="http://www.w3.org/2000/svg"
   xmlns:sodipodi="http://sodipodi.sourceforge.net/DTD/sodipodi-0.dtd"
   xmlns:inkscape="http://www.inkscape.org/namespaces/inkscape"
   version="1.1"
   id="svg2"
   width="128"
   height="128"
   viewBox="0 0 128 128"
   sodipodi:docname="logofixed2.svg"
   inkscape:version="0.92.5 (2060ec1f9f, 2020-04-08)">
  <metadata
     id="metadata8">
    <rdf:RDF>
      <cc:Work
         rdf:about="">
        <dc:format>image/svg+xml</dc:format>
        <dc:type
           rdf:resource="http://purl.org/dc/dcmitype/StillImage" />
        <dc:title></dc:title>
      </cc:Work>
    </rdf:RDF>
  </metadata>
  <defs
     id="defs6" />
  <sodipodi:namedview
     pagecolor="#ffffff"
     bordercolor="#666666"
     borderopacity="1"
     objecttolerance="10"
     gridtolerance="10"
     guidetolerance="10"
     inkscape:pageopacity="0"
     inkscape:pageshadow="2"
     inkscape:window-width="1920"
     inkscape:window-height="1016"
     id="namedview4"
     showgrid="false"
     inkscape:pagecheckerboard="true"
     inkscape:zoom="0.72021485"
     inkscape:cx="-194.78779"
     inkscape:cy="74.977626"
     inkscape:window-x="0"
     inkscape:window-y="27"
     inkscape:window-maximized="1"
     inkscape:current-layer="svg2" />
  <g
     id="g842"
     transform="matrix(0.192,0,0,0.192,16,16)">
    <ellipse
       cx="244.89221"
       cy="250.07458"
       rx="221.2751"
       ry="223.89153"
       id="path4565"
       style="display:inline;fill:#ffffff;fill-opacity:1;stroke:none;stroke-width:2.88559771" />
    <g
       transform="matrix(3.0535551,0,0,3.0574128,-55.236979,-38.883476)"
       style="display:inline;fill:#009bf9;fill-opacity:1"
       id="g3717">
      <path
         inkscape:connector-curvature="0"
         id="path3725"
         d="M 92.130169,176.0565 C 68.023347,173.55849 46.343689,160.80922 32.630838,141.0664 19.149946,121.65753 14.791338,97.452107 20.608999,74.30338 24.187065,60.0661 31.803982,46.79682 42.411095,36.322381 55.423308,23.472928 71.062732,15.835409 89.890169,13.135956 c 4.365408,-0.625906 16.720551,-0.531109 21.280001,0.163274 18.27962,2.783906 34.01924,10.640192 46.67787,23.298831 19.97928,19.979271 28.1691,48.446746 21.93861,76.257679 -2.54687,11.36838 -8.91574,24.38934 -16.28796,33.3002 -13.40147,16.19845 -31.4718,26.40689 -52.16852,29.47146 -3.92388,0.58101 -15.283892,0.8349 -19.200001,0.4291 z m 30.168601,-15.71511 c 8.83173,-2.93691 18.04372,-8.40359 24.93368,-14.79641 3.0327,-2.81387 3.71389,-3.94753 3.74493,-6.2324 0.0587,-4.31718 -3.79796,-7.28396 -7.9555,-6.11992 -1.04198,0.29173 -2.21143,1.11434 -4.34964,3.05959 -6.26938,5.7036 -13.74287,10.0479 -21.68473,12.60522 -3.66472,1.18006 -4.32783,1.5032 -5.30554,2.5854 -3.16399,3.50217 -1.65285,8.78417 2.93269,10.25085 1.37213,0.43887 3.33821,0.0929 7.68411,-1.35233 z m -13.01158,-19.76373 c 9.22975,-1.97163 16.75606,-5.96655 23.34375,-12.39071 7.04739,-6.87244 11.3514,-14.70914 13.4874,-24.55771 1.01047,-4.659037 1.01047,-13.647569 0,-18.306602 -2.07805,-9.581386 -6.37693,-17.56569 -12.98549,-24.11792 -6.71953,-6.662266 -14.23698,-10.701427 -23.94964,-12.868256 -4.6615,-1.039949 -13.591972,-1.044176 -18.36634,-0.0087 -6.476919,1.404739 -11.553815,3.496723 -16.703607,6.882883 -5.89808,3.878192 -9.343094,7.673856 -9.343094,10.294086 0,3.568215 2.69361,6.296925 6.21593,6.296925 2.120022,0 3.194076,-0.53175 5.668134,-2.806224 1.050771,-0.966003 3.090717,-2.52208 4.533213,-3.457945 11.665981,-7.568676 26.258174,-7.440772 38.213894,0.33496 2.34836,1.527318 7.57142,6.757955 9.15903,9.17232 7.93493,12.067084 7.91846,26.914543 -0.0432,38.910023 -1.74892,2.63502 -5.86109,6.80354 -8.53518,8.65214 -6.68257,4.61966 -14.00427,6.74951 -21.7526,6.32775 -8.03584,-0.43742 -15.798867,-3.6679 -21.575187,-8.97823 -2.474058,-2.27448 -3.548112,-2.80623 -5.668134,-2.80623 -3.52232,0 -6.21593,2.72871 -6.21593,6.29693 0,2.60756 3.325469,6.28037 9.26904,10.23717 6.069555,4.04066 12.333053,6.32028 20.97096,7.63242 2.380582,0.36163 11.281261,-0.0991 14.277021,-0.73908 z m -3.61493,-22.27513 c 7.88667,-1.82387 14.84866,-8.24792 17.44187,-16.09416 4.42932,-13.401703 -3.34448,-27.811217 -16.97221,-31.459713 -3.43322,-0.919158 -8.890637,-0.924646 -12.295159,-0.01235 -6.748534,1.808355 -12.398762,6.35353 -15.637834,12.57943 -1.916739,3.684215 -2.633142,6.720599 -2.633142,11.160212 0,4.439612 0.716403,7.475991 2.633142,11.160211 5.264096,10.11825 16.357581,15.23468 27.463333,12.66638 z m -10.312315,-12.4441 c -3.349661,-1.40328 -5.653414,-3.78116 -6.909805,-7.132154 -0.566998,-1.512265 -0.674221,-2.37808 -0.586861,-4.738765 0.09207,-2.488086 0.251034,-3.180988 1.146868,-4.999225 4.428787,-8.988912 17.494483,-8.987901 21.920043,0.0016 0.97395,1.978368 1.03998,2.326691 1.03998,5.485955 0,3.159264 -0.066,3.507587 -1.03998,5.485955 -1.23362,2.505844 -3.24316,4.472494 -5.78397,5.660544 -1.49341,0.6983 -2.35613,0.86503 -4.85605,0.93852 -2.635351,0.0775 -3.291607,-0.016 -4.930225,-0.70252 z M 41.759838,116.4521 c 1.589222,-0.83818 2.68793,-2.26467 3.195153,-4.14835 0.285533,-1.06038 0.204852,-1.90229 -0.478354,-4.99166 -1.99685,-9.029519 -1.99685,-16.642787 0,-25.672303 0.907816,-4.105031 0.81537,-5.262071 -0.585788,-7.331684 -2.444021,-3.609996 -8.507316,-3.220278 -10.494296,0.674522 -0.763122,1.495843 -1.733423,5.688061 -2.397575,10.358806 -1.235548,8.689156 0.04145,24.009429 2.384009,28.601229 1.526122,2.99144 5.312395,4.12569 8.376851,2.50944 z m 21.807288,-5.88475 c 2.824387,-1.65496 3.654848,-4.4013 2.650854,-8.76638 -0.854454,-3.714934 -0.988928,-9.152419 -0.315689,-12.765033 1.167664,-6.265715 1.060918,-7.372186 -0.908842,-9.420544 -2.227318,-2.316198 -5.148502,-2.652653 -7.845834,-0.90367 -1.728761,1.120947 -2.442902,2.525033 -3.301001,6.490147 -1.047578,4.840656 -1.048227,13.699037 -0.0013,18.55407 0.930013,4.3131 1.762697,5.75806 3.960275,6.87226 1.373824,0.69655 1.970778,0.82245 3.235523,0.68236 0.852989,-0.0945 1.989722,-0.42892 2.526074,-0.74321 z M 148.31859,54.975115 c 2.11872,-1.402109 3.20485,-4.374013 2.53201,-6.928224 -0.29004,-1.10106 -0.91074,-1.941104 -2.82605,-3.824744 -6.80021,-6.687755 -16.38936,-12.506923 -25.72578,-15.611662 -5.58453,-1.857087 -6.51726,-1.950472 -8.71954,-0.872999 -3.85894,1.888005 -4.77184,6.589702 -1.89726,9.771512 0.97282,1.076798 1.64327,1.406289 5.18278,2.547079 8.64562,2.786495 15.45549,6.79363 22.36067,13.157694 1.26238,1.163462 2.77438,2.277126 3.36,2.474809 1.66575,0.562298 4.3009,0.234365 5.73317,-0.713465 z"
         style="display:inline;fill:#ffffff;fill-opacity:1;stroke-width:0.31999999" />
      <path
         inkscape:connector-curvature="0"
         id="path3723"
         d="M 92.130169,176.0565 C 68.023347,173.55849 46.343689,160.80922 32.630838,141.0664 19.149946,121.65753 14.791338,97.452107 20.608999,74.30338 24.187065,60.0661 31.803982,46.79682 42.411095,36.322381 55.423308,23.472928 71.062732,15.835409 89.890169,13.135956 c 4.365408,-0.625906 16.720551,-0.531109 21.280001,0.163274 18.27962,2.783906 34.01924,10.640192 46.67787,23.298831 19.97928,19.979271 28.1691,48.446746 21.93861,76.257679 -2.54687,11.36838 -8.91574,24.38934 -16.28796,33.3002 -13.40147,16.19845 -31.4718,26.40689 -52.16852,29.47146 -3.92388,0.58101 -15.283892,0.8349 -19.200001,0.4291 z m 27.729801,-14.85554 c 10.22561,-2.9645 20.451,-8.89833 27.84634,-16.15932 3.09591,-3.03967 3.70884,-4.29661 3.32932,-6.82744 -0.58439,-3.897 -5.01963,-6.40221 -8.64944,-4.88558 -0.59589,0.24898 -2.14764,1.43944 -3.44835,2.64547 -6.4306,5.96253 -12.91124,9.76571 -21.65307,12.70715 -4.6477,1.56385 -5.76613,2.30772 -6.78793,4.5147 -1.0994,2.37461 -0.60252,4.96415 1.32176,6.88843 2.06692,2.06692 3.89012,2.32009 8.04137,1.11659 z m -12.03411,-20.3277 c 19.1555,-3.2748 33.95482,-17.51548 38.28057,-36.83556 0.63933,-2.85543 0.74374,-4.197782 0.74374,-9.561763 0,-5.363981 -0.10441,-6.706333 -0.74374,-9.56176 -2.09789,-9.369811 -6.28921,-17.084413 -12.87152,-23.691488 -6.39248,-6.416531 -13.91589,-10.572742 -23.02474,-12.719718 -5.03197,-1.186045 -12.522692,-1.380692 -17.87882,-0.464583 -9.104611,1.557245 -17.083485,5.401773 -24.09912,11.611879 -1.196499,1.059116 -2.429479,2.4947 -2.8,3.260099 -2.306663,4.764925 1.923769,10.067645 7.050614,8.837731 1.185117,-0.284304 2.102224,-0.863229 3.849594,-2.430061 10.886784,-9.761974 25.524442,-12.064131 38.310222,-6.025293 9.85376,4.65402 16.64184,13.246919 19.14853,24.239744 0.71686,3.143728 0.71686,10.743172 0,13.886903 -3.15539,13.8376 -13.31599,23.98409 -26.87331,26.83596 -10.815007,2.27501 -21.926383,-0.8571 -30.585442,-8.62151 -1.74737,-1.56683 -2.664477,-2.14576 -3.849594,-2.43006 -5.148707,-1.23516 -9.36711,4.05248 -7.050614,8.83773 1.212163,2.504 7.458857,7.4422 13.041843,10.30999 8.922547,4.5832 19.479405,6.20952 29.351787,4.52176 z m -3.69569,-22.21418 c 7.96262,-1.44168 14.52295,-6.48379 17.93335,-13.78314 1.70287,-3.64468 2.31994,-6.410921 2.31994,-10.400003 0,-12.44561 -9.06674,-22.711994 -21.52268,-24.370387 -5.151782,-0.685914 -11.073264,0.611638 -15.773974,3.456493 -2.560675,1.549712 -6.480819,5.469856 -8.030531,8.030531 -2.848519,4.706765 -4.124602,10.43351 -3.473533,15.588342 0.732509,5.799624 3.029507,10.522644 7.094659,14.587784 5.795322,5.79533 13.620042,8.30853 21.452769,6.89038 z m -8.009985,-12.49669 c -3.478474,-1.11549 -6.852416,-4.59627 -7.879382,-8.128907 -0.775879,-2.668928 -0.479437,-6.477248 0.690297,-8.8681 1.177056,-2.405814 3.331485,-4.554867 5.763152,-5.748768 1.750647,-0.859532 2.205757,-0.940678 5.275917,-0.940678 3.070161,0 3.525271,0.08115 5.275921,0.940678 2.44037,1.19818 4.58522,3.343028 5.7834,5.783405 0.85953,1.750647 0.94068,2.205757 0.94068,5.275917 0,3.07016 -0.0811,3.52527 -0.94068,5.275917 -1.19648,2.436916 -3.34399,4.586606 -5.76549,5.771326 -1.59838,0.78202 -2.35545,0.94247 -4.79591,1.0164 -1.883143,0.057 -3.405668,-0.075 -4.347905,-0.37719 z m -54.372979,10.38486 c 1.559625,-0.79566 3.059887,-2.7958 3.3398,-4.45259 0.139898,-0.82805 -0.0573,-2.43826 -0.596164,-4.86803 -1.956776,-8.823125 -1.956776,-16.678261 0,-25.501391 0.931362,-4.199526 0.837034,-5.484259 -0.542488,-7.388633 -2.449661,-3.381658 -7.572058,-3.468595 -10.087108,-0.171194 -1.847283,2.421914 -3.430097,11.794179 -3.430097,20.310525 0,8.513173 1.582873,17.888693 3.428734,20.308733 1.786736,2.34253 5.23851,3.1139 7.887323,1.76258 z m 21.033241,-5.60829 c 1.275754,-0.53291 2.787175,-1.82336 3.353287,-2.86302 0.755091,-1.38673 0.7944,-3.03696 0.143014,-6.00402 -0.910307,-4.146431 -0.905257,-11.067145 0.01114,-15.246185 0.579031,-2.640595 0.610122,-3.20278 0.253242,-4.578598 -0.89593,-3.453898 -4.568922,-5.48639 -7.883191,-4.362256 -2.718249,0.921981 -3.773008,2.445238 -4.803126,6.936554 -0.819795,3.5743 -1.150464,11.628348 -0.635754,15.484935 0.537748,4.0292 1.511956,7.55291 2.415783,8.73789 1.60703,2.10693 4.684265,2.92287 7.145625,1.8947 z M 147.55043,55.453393 c 2.64952,-1.202902 4.15307,-4.595309 3.31933,-7.489306 -0.8094,-2.809513 -8.98424,-9.693644 -16.85915,-14.197279 -6.53622,-3.738044 -15.82016,-7.070603 -18.62608,-6.686009 -5.21415,0.714678 -7.25481,7.032829 -3.45959,10.711304 0.80675,0.781931 2.11261,1.38591 5.35605,2.477259 8.71991,2.934065 15.20289,6.723615 21.51387,12.575676 1.37759,1.277411 2.96159,2.521302 3.52,2.764205 1.43362,0.6236 3.66505,0.557177 5.23557,-0.15585 z"
         style="display:inline;fill:#000000;fill-opacity:0;stroke-width:0.31999999" />
      <path
         inkscape:connector-curvature="0"
         id="path3721"
         d="M 92.130169,176.0565 C 68.023347,173.55849 46.343689,160.80922 32.630838,141.0664 19.149946,121.65753 14.791338,97.452107 20.608999,74.30338 24.187065,60.0661 31.803982,46.79682 42.411095,36.322381 55.423308,23.472928 71.062732,15.835409 89.890169,13.135956 c 4.365408,-0.625906 16.720551,-0.531109 21.280001,0.163274 18.27962,2.783906 34.01924,10.640192 46.67787,23.298831 19.97928,19.979271 28.1691,48.446746 21.93861,76.257679 -2.54687,11.36838 -8.91574,24.38934 -16.28796,33.3002 -13.40147,16.19845 -31.4718,26.40689 -52.16852,29.47146 -3.92388,0.58101 -15.283892,0.8349 -19.200001,0.4291 z m 29.920001,-15.51783 c 7.42929,-2.49197 15.54725,-6.89864 21.44,-11.63826 3.38475,-2.72241 6.45441,-5.85436 7.08077,-7.22447 1.90101,-4.15827 -1.16038,-8.8 -5.80391,-8.8 -2.07537,0 -3.14815,0.56599 -5.90771,3.11688 -6.45736,5.9691 -14.24607,10.44654 -22.61017,12.99775 -3.35992,1.02483 -4.6566,1.87827 -5.61515,3.6957 -1.70305,3.22904 -0.37087,7.17855 2.93617,8.70485 1.99154,0.91916 3.71474,0.74593 8.48,-0.85245 z M 109.91874,140.605 c 9.22033,-2.14259 16.89912,-6.3676 23.33143,-12.83738 6.6075,-6.64599 10.96543,-14.69235 13.00478,-24.01168 0.47248,-2.15912 0.59522,-4.072729 0.59522,-9.280003 0,-5.207274 -0.12274,-7.120886 -0.59522,-9.28 -4.38335,-20.030832 -20.2071,-34.814416 -40.10257,-37.466448 -3.96954,-0.529133 -12.578432,-0.195472 -16.143673,0.625693 -6.074944,1.399209 -11.268944,3.645718 -16.378029,7.083827 -3.991683,2.686163 -7.393549,5.735952 -8.232538,7.380506 -2.44432,4.79126 2.101047,10.35575 7.312768,8.95238 0.872675,-0.234988 2.084218,-1.033721 3.497248,-2.305628 9.194554,-8.276276 20.88432,-11.26489 32.458154,-8.298279 9.93746,2.547178 18.58482,9.87609 22.73064,19.264938 5.79501,13.123696 2.98732,28.322154 -7.0892,38.374884 -5.71238,5.6989 -12.96125,9.1048 -21.11229,9.91968 -9.68771,0.9685 -19.299352,-2.2984 -26.803694,-9.11031 -2.88688,-2.6205 -4.50216,-3.15966 -7.211661,-2.40716 -2.575827,0.71538 -4.409936,3.23821 -4.409936,6.06592 0,2.2287 0.837072,3.70762 3.427971,6.05642 6.072685,5.50525 14.546746,9.80677 22.332029,11.33598 4.019834,0.78959 4.141139,0.79744 10.560001,0.68339 4.64363,-0.0825 6.72933,-0.25892 8.82857,-0.74673 z m -3.70857,-22.29183 c 8.40088,-2.27883 15.04211,-8.96103 17.48934,-17.59723 1.00915,-3.561235 1.00534,-8.855753 -0.009,-12.480003 -2.4088,-8.606992 -9.10361,-15.344346 -17.48037,-17.591459 -6.16081,-1.652672 -13.201678,-0.628768 -18.965275,2.757984 -2.350602,1.381238 -6.966963,5.9976 -8.348202,8.348201 -4.731072,8.051367 -4.731072,17.399181 0,25.450547 0.59041,1.00477 2.299248,3.05262 3.797415,4.55079 3.785261,3.78526 7.566841,5.88479 12.430086,6.90118 2.666064,0.55719 8.430176,0.3804 11.085976,-0.34001 z m -9.600001,-12.10726 c -3.702042,-1.22784 -6.068592,-3.26258 -7.6316,-6.561573 -0.911075,-1.922976 -1.0084,-2.421808 -1.0084,-5.1684 0,-2.746592 0.09732,-3.245424 1.0084,-5.1684 0.554621,-1.170621 1.612842,-2.732842 2.3516,-3.4716 0.738758,-0.738758 2.300979,-1.796979 3.4716,-2.3516 1.922976,-0.911075 2.421808,-1.0084 5.1684,-1.0084 2.746591,0 3.245421,0.09732 5.168401,1.0084 2.70107,1.279722 4.54348,3.122131 5.8232,5.8232 0.91107,1.922976 1.0084,2.421808 1.0084,5.1684 0,2.746592 -0.0973,3.245424 -1.0084,5.1684 -2.01267,4.248073 -5.76741,6.712463 -10.49708,6.889653 -1.544201,0.0579 -3.086774,-0.0734 -3.854521,-0.32808 z m -53.925637,9.76725 c 0.6191,-0.49188 1.459049,-1.53398 1.866553,-2.31577 0.859605,-1.64916 0.824548,-2.8181 -0.229773,-7.66145 -1.595293,-7.328477 -1.595293,-15.711529 0,-23.040003 1.054321,-4.84335 1.089378,-6.012294 0.229773,-7.66145 -1.976231,-3.791408 -6.630632,-4.789315 -9.776952,-2.096182 -1.589998,1.360979 -2.10161,2.608234 -3.116886,7.59863 -1.223909,6.015895 -1.647073,12.66001 -1.182022,18.559002 0.397487,5.041973 1.59257,11.751403 2.494805,14.006313 0.665392,1.66298 2.723186,3.41934 4.406434,3.76095 1.830898,0.37159 3.978522,-0.0937 5.308068,-1.15004 z m 20.835307,-5.28207 c 1.883565,-0.99478 3.255872,-3.18591 3.293018,-5.25789 0.01498,-0.83449 -0.242189,-2.66926 -0.571446,-4.07726 -0.42888,-1.834029 -0.598647,-3.785085 -0.598647,-6.880003 0,-3.094918 0.169767,-5.045974 0.598647,-6.88 0.842316,-3.602003 0.752784,-5.257843 -0.383498,-7.092422 -2.232586,-3.604621 -7.422154,-3.999706 -10.13823,-0.771834 -3.706605,4.40505 -3.706605,25.083459 0,29.488509 1.84624,2.19413 5.224518,2.83119 7.800156,1.4709 z M 147.58292,55.467079 c 3.1591,-1.620086 4.47669,-5.353184 2.94741,-8.350838 -1.17625,-2.305638 -6.63425,-7.096882 -12.48016,-10.95558 -6.49007,-4.283881 -18.12805,-9.200915 -21.76,-9.193577 -4.76068,0.0096 -7.80342,4.887716 -5.72578,9.179536 0.86868,1.79446 2.35662,2.789735 5.70619,3.816848 8.34819,2.559884 16.27346,7.1134 22.57959,12.973256 1.232,1.144813 2.672,2.313703 3.2,2.597533 1.33505,0.717664 4.06702,0.684493 5.53275,-0.06718 z"
         style="display:inline;fill:#009bf9;fill-opacity:1;stroke-width:0.31999999" />
      <path
         inkscape:connector-curvature="0"
         id="path3719"
         d="M 92.130169,176.0565 C 68.023347,173.55849 46.343689,160.80922 32.630838,141.0664 19.149946,121.65753 14.791338,97.452107 20.608999,74.30338 24.187065,60.0661 31.803982,46.79682 42.411095,36.322381 55.423308,23.472928 71.062732,15.835409 89.890169,13.135956 c 4.365408,-0.625906 16.720551,-0.531109 21.280001,0.163274 18.27962,2.783906 34.01924,10.640192 46.67787,23.298831 19.97928,19.979271 28.1691,48.446746 21.93861,76.257679 -2.54687,11.36838 -8.91574,24.38934 -16.28796,33.3002 -13.40147,16.19845 -31.4718,26.40689 -52.16852,29.47146 -3.92388,0.58101 -15.283892,0.8349 -19.200001,0.4291 z m 29.510591,-15.3014 c 9.6349,-3.17168 17.55079,-7.78868 25.41589,-14.82401 3.09958,-2.77257 4.11352,-4.43277 4.11352,-6.73535 0,-1.96246 -0.44121,-3.03597 -1.83912,-4.47481 -1.23755,-1.27379 -2.50401,-1.83704 -4.26934,-1.89879 -2.26972,-0.0794 -3.16192,0.38696 -6.63337,3.46717 -6.46658,5.73778 -13.39897,9.75096 -21.25165,12.30261 -2.43219,0.79033 -4.57064,1.69269 -5.13325,2.1661 -2.72511,2.29303 -2.87299,6.95574 -0.29851,9.41196 2.34571,2.23794 4.48978,2.36472 9.89583,0.58512 z m -13.67059,-19.76522 c 9.48225,-1.56017 18.19868,-6.11269 25.29997,-13.21397 5.61579,-5.6158 9.06171,-11.17192 11.50104,-18.54404 1.69901,-5.13473 2.331,-9.13541 2.331,-14.755933 0,-12.885757 -4.67667,-24.144589 -13.83204,-33.299968 -7.12548,-7.125482 -15.61813,-11.552957 -25.45997,-13.273066 -4.23643,-0.740419 -11.387092,-0.738032 -15.680001,0.0052 -8.878438,1.5372 -17.681174,5.848596 -24.011277,11.760212 -2.755958,2.57375 -3.348723,3.63166 -3.348723,5.976464 0,2.782774 1.194806,4.673827 3.68,5.824435 2.70737,1.253469 5.109392,0.574531 8.394698,-2.372787 4.033462,-3.618509 8.685075,-6.19872 14.005302,-7.768631 3.530333,-1.041741 10.516821,-1.417283 14.498811,-0.77935 7.44208,1.192256 14.0038,4.653446 19.32332,10.19271 6.4832,6.751018 9.53787,14.352483 9.53787,23.734733 0,9.382251 -3.05467,16.983711 -9.53787,23.734731 -4.33667,4.51581 -9.34354,7.54742 -15.58213,9.43483 -2.70555,0.81852 -3.25798,0.87176 -9.120001,0.87885 -5.904272,0.007 -6.39495,-0.0397 -9.12,-0.87131 -5.414474,-1.65226 -10.002707,-4.20682 -14.005302,-7.79764 -3.285306,-2.94732 -5.687328,-3.62626 -8.394698,-2.37279 -2.485194,1.15061 -3.68,3.04166 -3.68,5.82444 0,2.3448 0.592765,3.40271 3.348723,5.97647 7.459216,6.96608 17.796131,11.42359 28.651277,12.35506 2.393258,0.20536 7.973631,-0.11785 11.200001,-0.6487 z m -2.94651,-22.3716 c 1.47263,-0.29713 3.76594,-1.12669 5.6913,-2.05871 6.43255,-3.11387 11.17177,-8.89559 13.1332,-16.02214 0.78352,-2.846789 0.78352,-9.276197 0,-12.122981 -1.96318,-7.132928 -6.70909,-12.920016 -13.1332,-16.014422 -3.87367,-1.865898 -6.82243,-2.564848 -10.807962,-2.561847 -6.544346,0.0049 -12.739885,2.574727 -17.369872,7.204714 -4.650947,4.650947 -7.202474,10.826723 -7.202474,17.433043 0,13.590283 10.806787,24.487783 24.409008,24.613913 1.54742,0.0143 3.92342,-0.19786 5.28,-0.47157 z m -8.625853,-12.57713 c -2.44374,-0.80748 -3.806732,-1.6965 -5.516508,-3.59818 -2.048362,-2.27827 -2.880432,-4.579711 -2.880432,-7.967033 0,-3.780026 0.868755,-5.915459 3.461299,-8.508003 2.626889,-2.62689 4.714646,-3.464512 8.674844,-3.48041 2.62699,-0.01053 3.07841,0.08272 5.01495,1.036128 2.65348,1.306375 5.04719,3.831655 6.06027,6.393354 1.03106,2.607177 1.01849,6.539888 -0.0294,9.198931 -1.0487,2.661073 -3.94425,5.545863 -6.57265,6.548203 -2.62836,1.00232 -5.869607,1.15112 -8.212366,0.37701 z m -54.318261,10.45983 c 0.683005,-0.38387 1.639806,-1.27188 2.126225,-1.97336 0.748562,-1.07952 0.883909,-1.5992 0.881212,-3.38355 -0.0018,-1.15947 -0.326769,-3.57574 -0.722259,-5.36949 -1.570727,-7.124016 -1.570727,-15.47327 0,-22.597289 0.39549,-1.793744 0.720507,-4.210013 0.722259,-5.369488 0.0027,-1.784346 -0.13265,-2.304029 -0.881212,-3.383549 -2.890897,-4.169031 -9.357913,-3.561277 -11.312773,1.063145 -0.68043,1.609629 -1.986843,8.562372 -2.395436,12.748538 -0.869781,8.911184 0.781604,23.035263 3.087469,26.406713 1.868195,2.73152 5.519584,3.53033 8.494515,1.85833 z m 21.383119,-5.69101 c 1.599424,-0.81597 2.802138,-2.27434 3.251312,-3.94246 0.382442,-1.42026 0.314493,-2.2503 -0.477392,-5.83157 -0.697658,-3.155152 -0.670061,-10.025552 0.05307,-13.213494 0.850906,-3.7512 0.729821,-5.850477 -0.43287,-7.504784 -1.471879,-2.094231 -3.030423,-2.848755 -5.628583,-2.724928 -1.828944,0.08717 -2.319961,0.245443 -3.36,1.083065 -1.674544,1.348637 -2.494076,2.935549 -3.105216,6.012813 -1.312467,6.608672 -1.310121,13.204295 0.007,19.604678 0.771239,3.74782 2.153338,5.93841 4.280208,6.78401 1.375981,0.54707 4.077709,0.41363 5.412496,-0.26733 z M 147.65682,55.582881 c 2.16961,-1.09609 3.51335,-3.312717 3.51335,-5.795635 0,-2.336887 -0.99947,-3.980944 -4.11352,-6.766459 -7.8651,-7.035331 -15.78099,-11.652337 -25.41589,-14.824014 -5.2431,-1.725959 -7.55349,-1.654023 -9.6199,0.299522 -2.09328,1.978947 -2.70333,5.008034 -1.5292,7.59288 0.91239,2.008621 2.13332,2.791614 6.63732,4.256561 7.95203,2.586441 14.84588,6.56718 21.20432,12.244099 2.54021,2.267936 3.67108,3.060553 4.8,3.364281 1.57742,0.424391 3.2146,0.290032 4.52352,-0.371235 z"
         style="display:inline;fill:#009bf9;fill-opacity:1;stroke-width:0.31999999" />
    </g>
  </g>
</svg>
